<?xml version="1.0" encoding="UTF-8" standalone="no"?>
<!DOCTYPE svg PUBLIC "-//W3C//DTD SVG 1.1//EN"
 "http://www.w3.org/Graphics/SVG/1.1/DTD/svg11.dtd">
<!-- Generated by graphviz version 14.1.5 (20260411.2331)
 -->
<!-- Title: G Pages: 1 -->
<svg width="932pt" height="533pt"
 viewBox="0.00 0.00 932.00 533.00" xmlns="http://www.w3.org/2000/svg" xmlns:xlink="http://www.w3.org/1999/xlink">
<g id="graph0" class="graph" transform="scale(1 1) rotate(0) translate(4 529)">
<title>G</title>
<polygon fill="white" stroke="none" points="-4,4 -4,-529 928,-529 928,4 -4,4"/>
<g id="clust1" class="cluster">
<title>cluster_G</title>
<path fill="#808080" fill-opacity="0.094118" stroke="black" d="M20,-8C20,-8 904,-8 904,-8 910,-8 916,-14 916,-20 916,-20 916,-505 916,-505 916,-511 910,-517 904,-517 904,-517 20,-517 20,-517 14,-517 8,-511 8,-505 8,-505 8,-20 8,-20 8,-14 14,-8 20,-8"/>
</g>
<g id="clust2" class="cluster">
<title>cluster_tool_client</title>
<path fill="#808080" fill-opacity="0.094118" stroke="black" d="M34,-16C34,-16 896,-16 896,-16 902,-16 908,-22 908,-28 908,-28 908,-453 908,-453 908,-459 902,-465 896,-465 896,-465 34,-465 34,-465 28,-465 22,-459 22,-453 22,-453 22,-28 22,-28 22,-22 28,-16 34,-16"/>
<text xml:space="preserve" text-anchor="middle" x="465" y="-447.7" font-family="Times New Roman,serif" font-size="14.00">tool_client</text>
</g>
<g id="clust3" class="cluster">
<title>cluster_tool_client__ChainedCallContext</title>
<path fill="#808080" fill-opacity="0.094118" stroke="black" d="M240,-24C240,-24 579,-24 579,-24 585,-24 591,-30 591,-36 591,-36 591,-160.5 591,-160.5 591,-166.5 585,-172.5 579,-172.5 579,-172.5 240,-172.5 240,-172.5 234,-172.5 228,-166.5 228,-160.5 228,-160.5 228,-36 228,-36 228,-30 234,-24 240,-24"/>
<text xml:space="preserve" text-anchor="middle" x="409.5" y="-155.2" font-family="Times New Roman,serif" font-size="14.00">tool_client.ChainedCallContext</text>
</g>
<!-- tool_client -->
<g id="node1" class="node">
<title>tool_client</title>
<g id="a_node1"><a xlink:title="tool_client&#10;E:Trae_projects1practice06tool_client.py">
<ellipse fill="#ffffff" fill-opacity="0.698039" stroke="black" cx="306" cy="-491" rx="50.33" ry="18"/>
<text xml:space="preserve" text-anchor="middle" x="306" y="-485.95" font-family="Times New Roman,serif" font-size="14.00" fill="#000000">tool_client</text>
</a>
</g>
</g>
<!-- tool_client__AVAILABLE_TOOLS -->
<g id="node2" class="node">
<title>tool_client__AVAILABLE_TOOLS</title>
<g id="a_node2"><a xlink:title="tool_client.AVAILABLE_TOOLS&#10;E:Trae_projects1practice06tool_client.py:87&#10;name in tool_client">
<ellipse fill="#fecccc" fill-opacity="0.698039" stroke="black" cx="804" cy="-198.5" rx="95.88" ry="18"/>
<text xml:space="preserve" text-anchor="middle" x="804" y="-193.45" font-family="Times New Roman,serif" font-size="14.00" fill="#000000">AVAILABLE_TOOLS</text>
</a>
</g>
</g>
<!-- tool_client&#45;&gt;tool_client__AVAILABLE_TOOLS -->
<g id="edge1" class="edge">
<title>tool_client&#45;&gt;tool_client__AVAILABLE_TOOLS</title>
<path fill="none" stroke="#838b8b" stroke-dasharray="5,2" d="M356.73,-490.03C459.98,-489.63 687.2,-486.32 715,-465 789.96,-407.52 802.4,-284.34 804.04,-228.31"/>
<polygon fill="#838b8b" stroke="#838b8b" points="807.54,-228.38 804.23,-218.32 800.55,-228.26 807.54,-228.38"/>
</g>
<!-- tool_client__ChainedCallContext -->
<g id="node3" class="node">
<title>tool_client__ChainedCallContext</title>
<g id="a_node3"><a xlink:title="tool_client.ChainedCallContext&#10;E:Trae_projects1practice06tool_client.py:155&#10;class in tool_client">
<ellipse fill="#fecccc" fill-opacity="0.698039" stroke="black" cx="434" cy="-198.5" rx="86.15" ry="18"/>
<text xml:space="preserve" text-anchor="middle" x="434" y="-193.45" font-family="Times New Roman,serif" font-size="14.00" fill="#000000">ChainedCallContext</text>
</a>
</g>
</g>
<!-- tool_client&#45;&gt;tool_client__ChainedCallContext -->
<g id="edge2" class="edge">
<title>tool_client&#45;&gt;tool_client__ChainedCallContext</title>
<path fill="none" stroke="#838b8b" stroke-dasharray="5,2" d="M255.64,-489.33C212.67,-487.56 155.59,-481.97 141,-465 103.97,-421.94 149.75,-277.83 176,-252.5 182.69,-246.04 285.03,-226.4 358.77,-212.93"/>
<polygon fill="#838b8b" stroke="#838b8b" points="359.18,-216.41 368.4,-211.18 357.93,-209.52 359.18,-216.41"/>
</g>
<!-- tool_client__TOOLS_SCHEMA -->
<g id="node4" class="node">
<title>tool_client__TOOLS_SCHEMA</title>
<g id="a_node4"><a xlink:title="tool_client.TOOLS_SCHEMA&#10;E:Trae_projects1practice06tool_client.py:94&#10;name in tool_client">
<ellipse fill="#fecccc" fill-opacity="0.698039" stroke="black" cx="114" cy="-122" rx="84.11" ry="18"/>
<text xml:space="preserve" text-anchor="middle" x="114" y="-116.95" font-family="Times New Roman,serif" font-size="14.00" fill="#000000">TOOLS_SCHEMA</text>
</a>
</g>
</g>
<!-- tool_client&#45;&gt;tool_client__TOOLS_SCHEMA -->
<g id="edge3" class="edge">
<title>tool_client&#45;&gt;tool_client__TOOLS_SCHEMA</title>
<path fill="none" stroke="#838b8b" stroke-dasharray="5,2" d="M256.32,-487.13C210.19,-483.77 145.37,-477.06 123,-465 59.93,-430.98 17,-415.16 17,-343.5 17,-343.5 17,-343.5 17,-269.5 17,-229.7 6.22,-214.45 27,-180.5 36.38,-165.17 51.57,-153.09 66.65,-144.03"/>
<polygon fill="#838b8b" stroke="#838b8b" points="68.15,-147.2 75.16,-139.26 64.72,-141.1 68.15,-147.2"/>
</g>
<!-- tool_client__build_analysis_prompt -->
<g id="node5" class="node">
<title>tool_client__build_analysis_prompt</title>
<g id="a_node5"><a xlink:title="tool_client.build_analysis_prompt&#10;E:Trae_projects1practice06tool_client.py:207&#10;function in tool_client">
<ellipse fill="#fecccc" fill-opacity="0.698039" stroke="black" cx="132" cy="-198.5" rx="95.88" ry="18"/>
<text xml:space="preserve" text-anchor="middle" x="132" y="-193.45" font-family="Times New Roman,serif" font-size="14.00" fill="#000000">build_analysis_prompt</text>
</a>
</g>
</g>
<!-- tool_client&#45;&gt;tool_client__build_analysis_prompt -->
<g id="edge4" class="edge">
<title>tool_client&#45;&gt;tool_client__build_analysis_prompt</title>
<path fill="none" stroke="#838b8b" stroke-dasharray="5,2" d="M256.01,-488.25C217.12,-485.75 167.56,-479.69 154,-465 138.2,-447.88 133.64,-293.2 132.42,-228.14"/>
<polygon fill="#838b8b" stroke="#838b8b" points="135.92,-228.18 132.25,-218.25 128.92,-228.3 135.92,-228.18"/>
</g>
<!-- tool_client__call_llm -->
<g id="node6" class="node">
<title>tool_client__call_llm</title>
<g id="a_node6"><a xlink:title="tool_client.call_llm&#10;E:Trae_projects1practice06tool_client.py:176&#10;function in tool_client">
<ellipse fill="#fecccc" fill-opacity="0.698039" stroke="black" cx="288" cy="-198.5" rx="41.63" ry="18"/>
<text xml:space="preserve" text-anchor="middle" x="288" y="-193.45" font-family="Times New Roman,serif" font-size="14.00" fill="#000000">call_llm</text>
</a>
</g>
</g>
<!-- tool_client&#45;&gt;tool_client__call_llm -->
<g id="edge5" class="edge">
<title>tool_client&#45;&gt;tool_client__call_llm</title>
<path fill="none" stroke="#838b8b" stroke-dasharray="5,2" d="M256.88,-486.72C225.21,-483.47 188.11,-477.13 178,-465 147.77,-428.72 150.74,-292.4 176,-252.5 184.11,-239.69 217.26,-224.91 245.41,-214.22"/>
<polygon fill="#838b8b" stroke="#838b8b" points="246.31,-217.62 254.47,-210.86 243.87,-211.06 246.31,-217.62"/>
</g>
<!-- tool_client__create_file -->
<g id="node7" class="node">
<title>tool_client__create_file</title>
<g id="a_node7"><a xlink:title="tool_client.create_file&#10;E:Trae_projects1practice06tool_client.py:60&#10;function in tool_client">
<ellipse fill="#fecccc" fill-opacity="0.698039" stroke="black" cx="235" cy="-270.5" rx="49.82" ry="18"/>
<text xml:space="preserve" text-anchor="middle" x="235" y="-265.45" font-family="Times New Roman,serif" font-size="14.00" fill="#000000">create_file</text>
</a>
</g>
</g>
<!-- tool_client&#45;&gt;tool_client__create_file -->
<g id="edge6" class="edge">
<title>tool_client&#45;&gt;tool_client__create_file</title>
<path fill="none" stroke="#838b8b" stroke-dasharray="5,2" d="M257.59,-485.7C229.52,-481.96 198.3,-475.46 190,-465 151.04,-415.89 186.41,-337.8 212.89,-297.48"/>
<polygon fill="#838b8b" stroke="#838b8b" points="215.72,-299.55 218.52,-289.33 209.96,-295.57 215.72,-299.55"/>
</g>
<!-- tool_client&#45;&gt;tool_client__create_file -->
<g id="edge7" class="edge">
<title>tool_client&#45;&gt;tool_client__create_file</title>
<path fill="none" stroke="#000000" d="M259.61,-483.58C237.69,-479.67 214.91,-473.71 208,-465 169.48,-416.45 203.61,-339.57 223.59,-298.87"/>
<polygon fill="#000000" stroke="#000000" points="226.68,-300.51 227.98,-289.99 220.41,-297.4 226.68,-300.51"/>
</g>
<!-- tool_client__execute_chained_tool_call -->
<g id="node8" class="node">
<title>tool_client__execute_chained_tool_call</title>
<g id="a_node8"><a xlink:title="tool_client.execute_chained_tool_call&#10;E:Trae_projects1practice06tool_client.py:256&#10;function in tool_client">
<ellipse fill="#fecccc" fill-opacity="0.698039" stroke="black" cx="539" cy="-270.5" rx="109.19" ry="18"/>
<text xml:space="preserve" text-anchor="middle" x="539" y="-265.45" font-family="Times New Roman,serif" font-size="14.00" fill="#000000">execute_chained_tool_call</text>
</a>
</g>
</g>
<!-- tool_client&#45;&gt;tool_client__execute_chained_tool_call -->
<g id="edge8" class="edge">
<title>tool_client&#45;&gt;tool_client__execute_chained_tool_call</title>
<path fill="none" stroke="#838b8b" stroke-dasharray="5,2" d="M356.43,-490.41C454.24,-490.66 662.09,-488.41 684,-465 737.4,-407.95 636.49,-331.57 577.43,-294.12"/>
<polygon fill="#838b8b" stroke="#838b8b" points="579.62,-291.36 569.28,-289.04 575.91,-297.3 579.62,-291.36"/>
</g>
<!-- tool_client__extract_json -->
<g id="node9" class="node">
<title>tool_client__extract_json</title>
<g id="a_node9"><a xlink:title="tool_client.extract_json&#10;E:Trae_projects1practice06tool_client.py:236&#10;function in tool_client">
<ellipse fill="#fecccc" fill-opacity="0.698039" stroke="black" cx="634" cy="-198.5" rx="55.96" ry="18"/>
<text xml:space="preserve" text-anchor="middle" x="634" y="-193.45" font-family="Times New Roman,serif" font-size="14.00" fill="#000000">extract_json</text>
</a>
</g>
</g>
<!-- tool_client&#45;&gt;tool_client__extract_json -->
<g id="edge9" class="edge">
<title>tool_client&#45;&gt;tool_client__extract_json</title>
<path fill="none" stroke="#838b8b" stroke-dasharray="5,2" d="M356.61,-490.53C457.11,-491.05 674.2,-489.31 697,-465 760.33,-397.49 690.28,-278.35 653.56,-225.73"/>
<polygon fill="#838b8b" stroke="#838b8b" points="656.46,-223.77 647.8,-217.65 650.76,-227.83 656.46,-223.77"/>
</g>
<!-- tool_client__fetch_web_content -->
<g id="node10" class="node">
<title>tool_client__fetch_web_content</title>
<g id="a_node10"><a xlink:title="tool_client.fetch_web_content&#10;E:Trae_projects1practice06tool_client.py:75&#10;function in tool_client">
<ellipse fill="#fecccc" fill-opacity="0.698039" stroke="black" cx="306" cy="-414.5" rx="81.04" ry="18"/>
<text xml:space="preserve" text-anchor="middle" x="306" y="-409.45" font-family="Times New Roman,serif" font-size="14.00" fill="#000000">fetch_web_content</text>
</a>
</g>
</g>
<!-- tool_client&#45;&gt;tool_client__fetch_web_content -->
<g id="edge10" class="edge">
<title>tool_client&#45;&gt;tool_client__fetch_web_content</title>
<path fill="none" stroke="#838b8b" stroke-dasharray="5,2" d="M300.2,-472.72C299.3,-464.23 299.04,-453.76 299.41,-444.12"/>
<polygon fill="#838b8b" stroke="#838b8b" points="302.88,-444.67 300.08,-434.45 295.9,-444.19 302.88,-444.67"/>
</g>
<!-- tool_client&#45;&gt;tool_client__fetch_web_content -->
<g id="edge11" class="edge">
<title>tool_client&#45;&gt;tool_client__fetch_web_content</title>
<path fill="none" stroke="#000000" d="M311.8,-472.72C312.7,-464.23 312.96,-453.76 312.59,-444.12"/>
<polygon fill="#000000" stroke="#000000" points="316.1,-444.19 311.92,-434.45 309.12,-444.67 316.1,-444.19"/>
</g>
<!-- tool_client__list_files -->
<g id="node11" class="node">
<title>tool_client__list_files</title>
<g id="a_node11"><a xlink:title="tool_client.list_files&#10;E:Trae_projects1practice06tool_client.py:27&#10;function in tool_client">
<ellipse fill="#fecccc" fill-opacity="0.698039" stroke="black" cx="448" cy="-414.5" rx="42.65" ry="18"/>
<text xml:space="preserve" text-anchor="middle" x="448" y="-409.45" font-family="Times New Roman,serif" font-size="14.00" fill="#000000">list_files</text>
</a>
</g>
</g>
<!-- tool_client&#45;&gt;tool_client__list_files -->
<g id="edge12" class="edge">
<title>tool_client&#45;&gt;tool_client__list_files</title>
<path fill="none" stroke="#838b8b" stroke-dasharray="5,2" d="M347.65,-480.67C360.73,-476.96 374.87,-471.88 387,-465 399.08,-458.15 410.49,-447.89 420.27,-438.49"/>
<polygon fill="#838b8b" stroke="#838b8b" points="422.61,-441.09 427.33,-431.61 417.73,-436.08 422.61,-441.09"/>
</g>
<!-- tool_client&#45;&gt;tool_client__list_files -->
<g id="edge13" class="edge">
<title>tool_client&#45;&gt;tool_client__list_files</title>
<path fill="none" stroke="#000000" d="M352.64,-483.67C370,-479.86 389.2,-473.96 405,-465 415.94,-458.79 426.34,-449.79 434.37,-441.15"/>
<polygon fill="#000000" stroke="#000000" points="437.01,-443.46 440.82,-433.57 431.68,-438.92 437.01,-443.46"/>
</g>
<!-- tool_client__main -->
<g id="node12" class="node">
<title>tool_client__main</title>
<g id="a_node12"><a xlink:title="tool_client.main&#10;E:Trae_projects1practice06tool_client.py:390&#10;function in tool_client">
<ellipse fill="#fecccc" fill-opacity="0.698039" stroke="black" cx="539" cy="-414.5" rx="29.86" ry="18"/>
<text xml:space="preserve" text-anchor="middle" x="539" y="-409.45" font-family="Times New Roman,serif" font-size="14.00" fill="#000000">main</text>
</a>
</g>
</g>
<!-- tool_client&#45;&gt;tool_client__main -->
<g id="edge14" class="edge">
<title>tool_client&#45;&gt;tool_client__main</title>
<path fill="none" stroke="#838b8b" stroke-dasharray="5,2" d="M355.52,-487.43C402.24,-484.37 468.18,-477.94 491,-465 501.56,-459.01 510.3,-448.91 517.54,-439.39"/>
<polygon fill="#838b8b" stroke="#838b8b" points="520.27,-441.57 523.39,-431.45 514.64,-437.42 520.27,-441.57"/>
</g>
<!-- tool_client&#45;&gt;tool_client__main -->
<g id="edge15" class="edge">
<title>tool_client&#45;&gt;tool_client__main</title>
<path fill="none" stroke="#000000" d="M356.21,-488.18C407.94,-485.48 484.11,-479.11 509,-465 518.44,-459.65 526.42,-451.01 532.13,-442.44"/>
<polygon fill="#000000" stroke="#000000" points="535.07,-444.34 536.99,-433.92 528.99,-440.87 535.07,-444.34"/>
</g>
<!-- tool_client__read_file -->
<g id="node13" class="node">
<title>tool_client__read_file</title>
<g id="a_node13"><a xlink:title="tool_client.read_file&#10;E:Trae_projects1practice06tool_client.py:48&#10;function in tool_client">
<ellipse fill="#fecccc" fill-opacity="0.698039" stroke="black" cx="631" cy="-414.5" rx="43.67" ry="18"/>
<text xml:space="preserve" text-anchor="middle" x="631" y="-409.45" font-family="Times New Roman,serif" font-size="14.00" fill="#000000">read_file</text>
</a>
</g>
</g>
<!-- tool_client&#45;&gt;tool_client__read_file -->
<g id="edge16" class="edge">
<title>tool_client&#45;&gt;tool_client__read_file</title>
<path fill="none" stroke="#838b8b" stroke-dasharray="5,2" d="M356.35,-489.08C421.79,-487.23 531.79,-481.68 569,-465 582.1,-459.13 594.05,-448.66 604.07,-438.86"/>
<polygon fill="#838b8b" stroke="#838b8b" points="606.36,-441.52 610.94,-431.97 601.4,-436.58 606.36,-441.52"/>
</g>
<!-- tool_client&#45;&gt;tool_client__read_file -->
<g id="edge17" class="edge">
<title>tool_client&#45;&gt;tool_client__read_file</title>
<path fill="none" stroke="#000000" d="M356.36,-489.38C426.09,-487.87 547.51,-482.7 587,-465 598.89,-459.67 609.83,-450.56 618.05,-441.59"/>
<polygon fill="#000000" stroke="#000000" points="620.66,-443.93 624.33,-433.99 615.26,-439.47 620.66,-443.93"/>
</g>
<!-- tool_client__run_tests -->
<g id="node14" class="node">
<title>tool_client__run_tests</title>
<g id="a_node14"><a xlink:title="tool_client.run_tests&#10;E:Trae_projects1practice06tool_client.py:362&#10;function in tool_client">
<ellipse fill="#fecccc" fill-opacity="0.698039" stroke="black" cx="363" cy="-342.5" rx="44.19" ry="18"/>
<text xml:space="preserve" text-anchor="middle" x="363" y="-337.45" font-family="Times New Roman,serif" font-size="14.00" fill="#000000">run_tests</text>
</a>
</g>
</g>
<!-- tool_client&#45;&gt;tool_client__run_tests -->
<g id="edge18" class="edge">
<title>tool_client&#45;&gt;tool_client__run_tests</title>
<path fill="none" stroke="#838b8b" stroke-dasharray="5,2" d="M256.46,-487.64C241.06,-484.28 225.62,-477.65 216,-465 197.58,-440.76 198.5,-421.41 216,-396.5 216.4,-395.93 276.68,-374.32 319.92,-358.87"/>
<polygon fill="#838b8b" stroke="#838b8b" points="320.83,-362.26 329.07,-355.6 318.48,-355.67 320.83,-362.26"/>
</g>
<!-- tool_client__ChainedCallContext____init__ -->
<g id="node15" class="node">
<title>tool_client__ChainedCallContext____init__</title>
<g id="a_node15"><a xlink:title="tool_client.ChainedCallContext.__init__&#10;E:Trae_projects1practice06tool_client.py:156&#10;method in tool_client.ChainedCallContext">
<ellipse fill="#ff9999" fill-opacity="0.698039" stroke="black" cx="415" cy="-50" rx="41.63" ry="18"/>
<text xml:space="preserve" text-anchor="middle" x="415" y="-44.95" font-family="Times New Roman,serif" font-size="14.00" fill="#000000">__init__</text>
</a>
</g>
</g>
<!-- tool_client__ChainedCallContext&#45;&gt;tool_client__ChainedCallContext____init__ -->
<g id="edge19" class="edge">
<title>tool_client__ChainedCallContext&#45;&gt;tool_client__ChainedCallContext____init__</title>
<path fill="none" stroke="#838b8b" stroke-dasharray="5,2" d="M372.57,-185.53C361.43,-183.64 349.89,-181.86 339,-180.5 326.62,-178.95 235.5,-181.63 227,-172.5 206.25,-150.22 208.62,-128.27 227,-104 243.62,-82.05 314.77,-66.63 364.6,-58.28"/>
<polygon fill="#838b8b" stroke="#838b8b" points="365.02,-61.76 374.33,-56.7 363.9,-54.85 365.02,-61.76"/>
</g>
<!-- tool_client__ChainedCallContext__add_step -->
<g id="node16" class="node">
<title>tool_client__ChainedCallContext__add_step</title>
<g id="a_node16"><a xlink:title="tool_client.ChainedCallContext.add_step&#10;E:Trae_projects1practice06tool_client.py:162&#10;method in tool_client.ChainedCallContext">
<ellipse fill="#ff9999" fill-opacity="0.698039" stroke="black" cx="539" cy="-122" rx="43.67" ry="18"/>
<text xml:space="preserve" text-anchor="middle" x="539" y="-116.95" font-family="Times New Roman,serif" font-size="14.00" fill="#000000">add_step</text>
</a>
</g>
</g>
<!-- tool_client__ChainedCallContext&#45;&gt;tool_client__ChainedCallContext__add_step -->
<g id="edge20" class="edge">
<title>tool_client__ChainedCallContext&#45;&gt;tool_client__ChainedCallContext__add_step</title>
<path fill="none" stroke="#838b8b" stroke-dasharray="5,2" d="M470.32,-181.8C475.73,-178.96 481.12,-175.84 486,-172.5 496.71,-165.18 507.39,-155.73 516.32,-147.05"/>
<polygon fill="#838b8b" stroke="#838b8b" points="518.64,-149.68 523.23,-140.13 513.69,-144.74 518.64,-149.68"/>
</g>
<!-- tool_client__ChainedCallContext__get_variable -->
<g id="node17" class="node">
<title>tool_client__ChainedCallContext__get_variable</title>
<g id="a_node17"><a xlink:title="tool_client.ChainedCallContext.get_variable&#10;E:Trae_projects1practice06tool_client.py:173&#10;method in tool_client.ChainedCallContext">
<ellipse fill="#ff9999" fill-opacity="0.698039" stroke="black" cx="292" cy="-122" rx="56.47" ry="18"/>
<text xml:space="preserve" text-anchor="middle" x="292" y="-116.95" font-family="Times New Roman,serif" font-size="14.00" fill="#000000">get_variable</text>
</a>
</g>
</g>
<!-- tool_client__ChainedCallContext&#45;&gt;tool_client__ChainedCallContext__get_variable -->
<g id="edge21" class="edge">
<title>tool_client__ChainedCallContext&#45;&gt;tool_client__ChainedCallContext__get_variable</title>
<path fill="none" stroke="#838b8b" stroke-dasharray="5,2" d="M383.58,-183.49C374.85,-180.34 366.01,-176.67 358,-172.5 344.27,-165.34 330.37,-155.4 318.89,-146.31"/>
<polygon fill="#838b8b" stroke="#838b8b" points="321.38,-143.83 311.42,-140.22 316.96,-149.25 321.38,-143.83"/>
</g>
<!-- tool_client__ChainedCallContext__set_variable -->
<g id="node18" class="node">
<title>tool_client__ChainedCallContext__set_variable</title>
<g id="a_node18"><a xlink:title="tool_client.ChainedCallContext.set_variable&#10;E:Trae_projects1practice06tool_client.py:170&#10;method in tool_client.ChainedCallContext">
<ellipse fill="#ff9999" fill-opacity="0.698039" stroke="black" cx="422" cy="-122" rx="55.45" ry="18"/>
<text xml:space="preserve" text-anchor="middle" x="422" y="-116.95" font-family="Times New Roman,serif" font-size="14.00" fill="#000000">set_variable</text>
</a>
</g>
</g>
<!-- tool_client__ChainedCallContext&#45;&gt;tool_client__ChainedCallContext__set_variable -->
<g id="edge22" class="edge">
<title>tool_client__ChainedCallContext&#45;&gt;tool_client__ChainedCallContext__set_variable</title>
<path fill="none" stroke="#838b8b" stroke-dasharray="5,2" d="M431.22,-180.22C429.85,-171.73 428.16,-161.26 426.61,-151.62"/>
<polygon fill="#838b8b" stroke="#838b8b" points="430.1,-151.25 425.05,-141.94 423.19,-152.37 430.1,-151.25"/>
</g>
<!-- tool_client__call_llm&#45;&gt;tool_client__TOOLS_SCHEMA -->
<g id="edge25" class="edge">
<title>tool_client__call_llm&#45;&gt;tool_client__TOOLS_SCHEMA</title>
<path fill="none" stroke="#000000" d="M255.92,-186.74C249.65,-184.66 243.12,-182.5 237,-180.5 225.91,-176.88 222.8,-176.92 212,-172.5 192.09,-164.35 170.69,-153.76 152.99,-144.48"/>
<polygon fill="#000000" stroke="#000000" points="154.83,-141.5 144.36,-139.9 151.55,-147.68 154.83,-141.5"/>
</g>
<!-- tool_client__execute_chained_tool_call&#45;&gt;tool_client__AVAILABLE_TOOLS -->
<g id="edge26" class="edge">
<title>tool_client__execute_chained_tool_call&#45;&gt;tool_client__AVAILABLE_TOOLS</title>
<path fill="none" stroke="#000000" d="M595.2,-254.65C637.36,-243.52 695.15,-228.25 739.25,-216.6"/>
<polygon fill="#000000" stroke="#000000" points="739.91,-220.05 748.68,-214.11 738.12,-213.28 739.91,-220.05"/>
</g>
<!-- tool_client__execute_chained_tool_call&#45;&gt;tool_client__ChainedCallContext -->
<g id="edge27" class="edge">
<title>tool_client__execute_chained_tool_call&#45;&gt;tool_client__ChainedCallContext</title>
<path fill="none" stroke="#000000" d="M513.58,-252.55C499.94,-243.46 482.94,-232.13 468.16,-222.27"/>
<polygon fill="#000000" stroke="#000000" points="470.34,-219.52 460.08,-216.89 466.46,-225.35 470.34,-219.52"/>
</g>
<!-- tool_client__execute_chained_tool_call&#45;&gt;tool_client__build_analysis_prompt -->
<g id="edge30" class="edge">
<title>tool_client__execute_chained_tool_call&#45;&gt;tool_client__build_analysis_prompt</title>
<path fill="none" stroke="#000000" d="M465.3,-256.82C393.83,-244.53 285.7,-225.94 212.13,-213.28"/>
<polygon fill="#000000" stroke="#000000" points="213.03,-209.88 202.58,-211.64 211.84,-216.78 213.03,-209.88"/>
</g>
<!-- tool_client__execute_chained_tool_call&#45;&gt;tool_client__call_llm -->
<g id="edge31" class="edge">
<title>tool_client__execute_chained_tool_call&#45;&gt;tool_client__call_llm</title>
<path fill="none" stroke="#000000" d="M480.09,-254.92C440.11,-244.78 386.15,-230.59 339,-216.5 336.3,-215.69 333.53,-214.84 330.74,-213.96"/>
<polygon fill="#000000" stroke="#000000" points="332.04,-210.7 321.45,-210.97 329.89,-217.37 332.04,-210.7"/>
</g>
<!-- tool_client__execute_chained_tool_call&#45;&gt;tool_client__extract_json -->
<g id="edge32" class="edge">
<title>tool_client__execute_chained_tool_call&#45;&gt;tool_client__extract_json</title>
<path fill="none" stroke="#000000" d="M562,-252.55C574.49,-243.35 590.1,-231.85 603.58,-221.91"/>
<polygon fill="#000000" stroke="#000000" points="605.32,-224.98 611.3,-216.23 601.17,-219.34 605.32,-224.98"/>
</g>
<!-- tool_client__execute_chained_tool_call&#45;&gt;tool_client__ChainedCallContext____init__ -->
<g id="edge28" class="edge">
<title>tool_client__execute_chained_tool_call&#45;&gt;tool_client__ChainedCallContext____init__</title>
<path fill="none" stroke="#000000" d="M540.36,-252.08C542.83,-232.21 549.72,-199.96 569,-180.5 576.62,-172.81 585.73,-181.32 592,-172.5 609.64,-147.69 610.18,-128.42 592,-104 576.69,-83.44 511.51,-67.89 464.7,-59.11"/>
<polygon fill="#000000" stroke="#000000" points="465.48,-55.7 455.02,-57.35 464.23,-62.59 465.48,-55.7"/>
</g>
<!-- tool_client__execute_chained_tool_call&#45;&gt;tool_client__ChainedCallContext__add_step -->
<g id="edge29" class="edge">
<title>tool_client__execute_chained_tool_call&#45;&gt;tool_client__ChainedCallContext__add_step</title>
<path fill="none" stroke="#000000" d="M539,-252.12C539,-227.34 539,-181.55 539,-151.7"/>
<polygon fill="#000000" stroke="#000000" points="542.5,-151.87 539,-141.87 535.5,-151.87 542.5,-151.87"/>
</g>
<!-- tool_client__main&#45;&gt;tool_client__execute_chained_tool_call -->
<g id="edge33" class="edge">
<title>tool_client__main&#45;&gt;tool_client__execute_chained_tool_call</title>
<path fill="none" stroke="#000000" d="M539,-396.09C539,-372.11 539,-328.64 539,-299.92"/>
<polygon fill="#000000" stroke="#000000" points="542.5,-300.12 539,-290.12 535.5,-300.12 542.5,-300.12"/>
</g>
<!-- tool_client__main&#45;&gt;tool_client__run_tests -->
<g id="edge34" class="edge">
<title>tool_client__main&#45;&gt;tool_client__run_tests</title>
<path fill="none" stroke="#000000" d="M515.56,-403.09C510.45,-400.88 505.06,-398.58 500,-396.5 468.49,-383.54 432.56,-369.68 405.4,-359.38"/>
<polygon fill="#000000" stroke="#000000" points="406.72,-356.13 396.13,-355.87 404.24,-362.68 406.72,-356.13"/>
</g>
<!-- tool_client__run_tests&#45;&gt;tool_client__create_file -->
<g id="edge35" class="edge">
<title>tool_client__run_tests&#45;&gt;tool_client__create_file</title>
<path fill="none" stroke="#000000" d="M337.4,-327.5C318.47,-317.15 292.42,-302.9 271.33,-291.37"/>
<polygon fill="#000000" stroke="#000000" points="273.21,-288.41 262.76,-286.68 269.85,-294.55 273.21,-288.41"/>
</g>
<!-- tool_client__run_tests&#45;&gt;tool_client__execute_chained_tool_call -->
<g id="edge36" class="edge">
<title>tool_client__run_tests&#45;&gt;tool_client__execute_chained_tool_call</title>
<path fill="none" stroke="#000000" d="M393.66,-329.31C419.65,-318.97 457.45,-303.93 488,-291.79"/>
<polygon fill="#000000" stroke="#000000" points="489.06,-295.13 497.06,-288.18 486.47,-288.63 489.06,-295.13"/>
</g>
<!-- tool_client__ChainedCallContext__add_step&#45;&gt;tool_client__ChainedCallContext____init__ -->
<g id="edge23" class="edge">
<title>tool_client__ChainedCallContext__add_step&#45;&gt;tool_client__ChainedCallContext____init__</title>
<path fill="none" stroke="#000000" d="M513.91,-106.83C495.38,-96.38 469.94,-82.02 449.51,-70.48"/>
<polygon fill="#000000" stroke="#000000" points="451.38,-67.52 440.95,-65.65 447.94,-73.61 451.38,-67.52"/>
</g>
<!-- tool_client__ChainedCallContext__get_variable&#45;&gt;tool_client__ChainedCallContext____init__ -->
<g id="edge24" class="edge">
<title>tool_client__ChainedCallContext__get_variable&#45;&gt;tool_client__ChainedCallContext____init__</title>
<path fill="none" stroke="#000000" d="M318.69,-105.81C336.86,-95.47 361.08,-81.69 380.68,-70.53"/>
<polygon fill="#000000" stroke="#000000" points="382.18,-73.71 389.14,-65.72 378.72,-67.62 382.18,-73.71"/>
</g>
</g>
</svg>
